<?xml version="1.0"?>
<svg xmlns:rdf="http://www.w3.org/1999/02/22-rdf-syntax-ns#" xmlns="http://www.w3.org/2000/svg" xmlns:cc="http://creativecommons.org/ns#" xmlns:dc="http://purl.org/dc/elements/1.1/" xmlns:svg="http://www.w3.org/2000/svg" id="svg2" height="297mm" width="210mm" version="1.1">
  <g id="layer1">
    <g id="g3861" transform="translate(143.42 -150.87)">
      <g id="g3924" transform="matrix(.98843 .15168 -.15168 .98843 69.35 -26.748)">
        <g id="g3974">
          <path id="path3827" stroke="#000" fill-rule="evenodd" fill="#fff" d="m182.04 527.29c7.9139 22.909-31.095 100.19-18.599 88.817 13.188-12.004 40.477 12.704 29.882 20.028-6.299 4.3537-53.654 11.365-62.675 1.2349-11.71-13.14-18.81-37.04-31.876-61.1-22.919-42.22-16.075-43.17-16.349-61.41-0.393-26.24 83.015-35.63 99.615 12.44z"/>
          <path id="path3807" stroke="#000" fill-rule="evenodd" fill="#fff" d="m323.56 534.54c5.5718 23.588-10.243 73.371-0.66796 59.448 10.886-15.83 28.573-2.4007 28.218 22.311-0.10977 7.6564-54.381 7.1192-62.579-3.6872-10.641-14.026-20.69-36.777-26.985-63.423-11.144-47.177-6.2952-88.7 10.829-92.745s40.04 30.92 51.184 78.097z"/>
          <path id="path3805" d="m305.46 521.29c-27.408 51.39-98.569 85.503-160.8 80.321-73.018-6.0799-85.521-31.846-85.472-80.321 0.02434-24.27 20.572-58.766 53.985-56.213 43.525 3.3266 103.4-12.813 113.87-29.696 34.786-56.07 121.32 5.4538 78.416 85.909z" fill-rule="evenodd" stroke="#000" stroke-width=".96034" fill="#fff"/>
          <g id="g3003" stroke="#000" transform="matrix(-1.4827 -.21920 -.33311 .97568 821.47 14.078)">
            <path id="path3005" stroke-width=".66003" transform="matrix(1 0 0 1.5106 -2.5006 -181.43)" fill="none" d="m262.56 341.56c0 25.204-6.7174 45.636-15.004 45.636-8.2863 0-15.004-20.432-15.004-45.636s6.7174-45.636 15.004-45.636c8.2863 0 15.004 20.432 15.004 45.636z"/>
            <path id="path3007" stroke-width="1.0784" transform="matrix(.57345 0 0 .98676 103.72 21.859)" fill="#ffe4e1" d="m262.56 341.56c0 25.204-6.7174 45.636-15.004 45.636-8.2863 0-15.004-20.432-15.004-45.636s6.7174-45.636 15.004-45.636c8.2863 0 15.004 20.432 15.004 45.636z"/>
          </g>
          <g id="g2999" stroke="#000" transform="matrix(1.4827 -.21920 .33311 .97568 -229.98 14.078)">
            <path id="path2987" stroke-width=".66003" transform="matrix(1 0 0 1.5106 -2.5006 -181.43)" fill="none" d="m262.56 341.56c0 25.204-6.7174 45.636-15.004 45.636-8.2863 0-15.004-20.432-15.004-45.636s6.7174-45.636 15.004-45.636c8.2863 0 15.004 20.432 15.004 45.636z"/>
            <path id="path2989" stroke-width="1.0784" transform="matrix(.57345 0 0 .98676 103.72 21.859)" fill="#ffe4e1" d="m262.56 341.56c0 25.204-6.7174 45.636-15.004 45.636-8.2863 0-15.004-20.432-15.004-45.636s6.7174-45.636 15.004-45.636c8.2863 0 15.004 20.432 15.004 45.636z"/>
          </g>
          <path id="path2985" stroke="#000" fill="#fff" d="m357.13 381.91c-4.1876 30.441-16.808 64-61.533 65.376-31.635 0.97273-59.351-18.427-61.533-65.376-1.4587-31.385 27.549-56.889 61.533-56.889s65.815 25.763 61.533 56.889z"/>
          <g id="g3009" stroke="#2c1d1d" transform="matrix(1.295 0 0 1.106 -70.647 -94.534)">
            <path id="path2991" stroke-width="5.1958" transform="matrix(.21870 0 0 .26608 241.19 300.83)" fill="#fff" d="m341.33 430.34c0 31.419-27.149 56.889-60.64 56.889-33.49 0-60.64-25.47-60.64-56.889s27.149-56.889 60.64-56.889c33.49 0 60.64 25.47 60.64 56.889z"/>
            <path id="path2993" stroke-width="8.8065" transform="matrix(.13786 0 0 .14694 265.13 352.72)" d="m341.33 430.34c0 31.419-27.149 56.889-60.64 56.889-33.49 0-60.64-25.47-60.64-56.889s27.149-56.889 60.64-56.889c33.49 0 60.64 25.47 60.64 56.889z"/>
            <path id="path2995" stroke-width="26.11" transform="matrix(.035839 0 0 .064298 294.36 384.72)" fill="#fff" d="m341.33 430.34c0 31.419-27.149 56.889-60.64 56.889-33.49 0-60.64-25.47-60.64-56.889s27.149-56.889 60.64-56.889c33.49 0 60.64 25.47 60.64 56.889z"/>
            <path id="path2997" stroke-width="49.656" transform="matrix(.025764 0 0 .024729 297.12 408.93)" fill="#fff" d="m341.33 430.34c0 31.419-27.149 56.889-60.64 56.889-33.49 0-60.64-25.47-60.64-56.889s27.149-56.889 60.64-56.889c33.49 0 60.64 25.47 60.64 56.889z"/>
          </g>
          <g id="g3015" stroke="#2c1d1d" transform="matrix(-1.295 0 0 1.106 662.34 -94.534)">
            <path id="path3017" stroke-width="5.1958" transform="matrix(.21870 0 0 .26608 241.19 300.83)" fill="#fff" d="m341.33 430.34c0 31.419-27.149 56.889-60.64 56.889-33.49 0-60.64-25.47-60.64-56.889s27.149-56.889 60.64-56.889c33.49 0 60.64 25.47 60.64 56.889z"/>
            <path id="path3019" stroke-width="8.8065" transform="matrix(.13786 0 0 .14694 265.13 352.72)" d="m341.33 430.34c0 31.419-27.149 56.889-60.64 56.889-33.49 0-60.64-25.47-60.64-56.889s27.149-56.889 60.64-56.889c33.49 0 60.64 25.47 60.64 56.889z"/>
            <path id="path3021" stroke-width="26.11" transform="matrix(.035839 0 0 .064298 294.36 384.72)" fill="#fff" d="m341.33 430.34c0 31.419-27.149 56.889-60.64 56.889-33.49 0-60.64-25.47-60.64-56.889s27.149-56.889 60.64-56.889c33.49 0 60.64 25.47 60.64 56.889z"/>
            <path id="path3023" stroke-width="49.656" transform="matrix(.025764 0 0 .024729 297.12 408.93)" fill="#fff" d="m341.33 430.34c0 31.419-27.149 56.889-60.64 56.889-33.49 0-60.64-25.47-60.64-56.889s27.149-56.889 60.64-56.889c33.49 0 60.64 25.47 60.64 56.889z"/>
          </g>
          <path id="path3025" d="m292.7 446.31c0 4.0196-4.4034 7.2781-9.8352 7.2781s-9.8352-3.2585-9.8352-7.2781 4.4034-7.2781 9.8352-7.2781c5.4319 0 9.8352 3.2585 9.8352 7.2781z" fill-rule="evenodd" transform="matrix(1 0 0 1.3831 14.007 -225.52)" stroke="#000" stroke-width="2" fill="#ffe4e1"/>
          <path id="path3027" stroke="#000" stroke-width="1.311px" fill="none" d="m296.87 402.24v18.933"/>
          <path id="path3029" stroke="#000" stroke-width=".88584px" fill="none" d="m260.28 404.21c2.519 2.9509 6.7724 5.7038 10.835 9.3744 5.5444 5.0092 22.455 16.2 25.016 8.6473 2.0408-6.0185 0.56959-14.553 0.36665-5.0366-0.39394 18.472 30.115-3.5274 38.53-12.059"/>
          <path id="rect3031" stroke="#000" fill-rule="evenodd" fill="#fff" d="m289.79 424.67c2.8301-0.0218 5.6412-0.10727 7.3834-3.7555l-0.69546 16.345h-6.688z"/>
          <path id="rect3033" stroke="#000" fill-rule="evenodd" fill="#fff" d="m296.73 421.05c2.1227 1.2437 2.0738 3.0303 6.827 3.6164v12.589h-6.688z"/>
          <path id="path3812" stroke="#000" fill-rule="evenodd" fill="#fff" d="m164.65 548.52c0.53569 24.232-26.695 85.899-11.321 78.887 16.225-7.4003 43.357 21.762 33.509 30.063-6.8807 5.7994-114.07 14.729-104.76-19.837 9.6393-35.793 5.8005-22.586-11.682-67.928-11.028-28.601 3.8656-23.292 6.9232-41.12 4.4352-25.86 86.203-30.913 87.328 19.935z"/>
          <g id="g3848" stroke="#000" stroke-width="1px" fill="none" transform="translate(14.901 -48.427)">
            <path id="path3836" d="m296.59 453.83 46.453-11.613"/>
            <path id="path3838" d="m297.93 458.74 43.327-2.68"/>
            <path id="path3840" d="m299.27 445.79 46.007-14.74"/>
          </g>
          <g id="g3853" stroke="#000" stroke-width="1px" fill="none" transform="matrix(-1 0 0 1 579.04 -52.894)">
            <path id="path3855" d="m296.59 453.83 46.453-11.613"/>
            <path id="path3857" d="m297.93 458.74 43.327-2.68"/>
            <path id="path3859" d="m299.27 445.79 46.007-14.74"/>
          </g>
          <path id="path3922" stroke="#000" fill-rule="evenodd" fill="#fff" d="m295.62 541.99c5.5718 23.588-10.243 73.371-0.66796 59.448 10.886-15.83 28.573-2.4007 28.218 22.311-0.10977 7.6564-54.381 7.1192-62.579-3.6872-10.641-14.026-20.69-36.777-26.985-63.423-11.144-47.177-6.2952-88.7 10.829-92.745s40.04 30.92 51.184 78.097z"/>
          <g id="g3970" stroke="#ccb2b2" fill="#dcdcdc" transform="matrix(.96401 .0055226 -.23451 1.036 118.6 -18.2)">
            <path id="path3964" d="m189.98 307.33-14.148-26.253 5.9146 29.645-7.7126-28.809-1.0814 30.21-0.86105-29.811-8.0192 29.146 6.037-29.206-14.525 26.511 12.61-27.026-20.247 22.447 18.502-23.39-24.878 17.173 23.398-18.492-28.168 10.973 27.032-12.598-29.939 4.1809 29.208-6.0245-30.096-2.8361 29.81 0.87373-28.631-9.7003 28.805 7.7249-25.622-16.042 26.247 14.16-21.232-21.518 22.274 19.831-15.697-25.834 17.101 24.433-9.3162-28.758 11.005 27.718-2.4331-30.131 4.316 29.509 4.5813-29.88-2.6056 29.709 11.349-28.018-9.3867 28.307 17.504-24.646-15.662 25.38 22.716-19.945-21.093 21.084 26.703-14.168-25.386 15.651 29.251-7.6283-28.311 9.3747 30.222-0.67697-29.71 2.5929 29.563 6.3109-29.507-4.3286 27.311 12.959-27.714-11.017 23.586 18.908-24.426-17.111 18.59 23.837-19.822-22.283z" transform="matrix(.98843 -.15168 .15168 .98843 -152.09 252.03)"/>
            <path id="path3968" transform="matrix(.99857 -.053468 .053468 .99857 -126.93 232.43)" d="m189.98 307.33-14.148-26.253 5.9146 29.645-7.7126-28.809-1.0814 30.21-0.86105-29.811-8.0192 29.146 6.037-29.206-14.525 26.511 12.61-27.026-20.247 22.447 18.502-23.39-24.878 17.173 23.398-18.492-28.168 10.973 27.032-12.598-29.939 4.1809 29.208-6.0245-30.096-2.8361 29.81 0.87373-28.631-9.7003 28.805 7.7249-25.622-16.042 26.247 14.16-21.232-21.518 22.274 19.831-15.697-25.834 17.101 24.433-9.3162-28.758 11.005 27.718-2.4331-30.131 4.316 29.509 4.5813-29.88-2.6056 29.709 11.349-28.018-9.3867 28.307 17.504-24.646-15.662 25.38 22.716-19.945-21.093 21.084 26.703-14.168-25.386 15.651 29.251-7.6283-28.311 9.3747 30.222-0.67697-29.71 2.5929 29.563 6.3109-29.507-4.3286 27.311 12.959-27.714-11.017 23.586 18.908-24.426-17.111 18.59 23.837-19.822-22.283z"/>
          </g>
        </g>
      </g>
    </g>
  </g>
  <metadata>
    <rdf:RDF>
      <cc:Work>
        <dc:format>image/svg+xml</dc:format>
        <dc:type rdf:resource="http://purl.org/dc/dcmitype/StillImage"/>
        <cc:license rdf:resource="http://creativecommons.org/licenses/publicdomain/"/>
        <dc:publisher>
          <cc:Agent rdf:about="http://openclipart.org/">
            <dc:title>Openclipart</dc:title>
          </cc:Agent>
        </dc:publisher>
        <dc:title>RABBIT</dc:title>
        <dc:date>2013-06-19T04:14:05</dc:date>
        <dc:description>A rabbit with a tail from the side.</dc:description>
        <dc:source>http://openclipart.org/detail/179421/rabbit-by-honylakiray-179421</dc:source>
        <dc:creator>
          <cc:Agent>
            <dc:title>Honylakiray</dc:title>
          </cc:Agent>
        </dc:creator>
        <dc:subject>
          <rdf:Bag>
            <rdf:li>RABBIT</rdf:li>
            <rdf:li>animal.</rdf:li>
            <rdf:li>conejo</rdf:li>
          </rdf:Bag>
        </dc:subject>
      </cc:Work>
      <cc:License rdf:about="http://creativecommons.org/licenses/publicdomain/">
        <cc:permits rdf:resource="http://creativecommons.org/ns#Reproduction"/>
        <cc:permits rdf:resource="http://creativecommons.org/ns#Distribution"/>
        <cc:permits rdf:resource="http://creativecommons.org/ns#DerivativeWorks"/>
      </cc:License>
    </rdf:RDF>
  </metadata>
</svg>
