<?xml version="1.0"?>
<svg xmlns:rdf="http://www.w3.org/1999/02/22-rdf-syntax-ns#" xmlns="http://www.w3.org/2000/svg" xmlns:cc="http://web.resource.org/cc/" xmlns:dc="http://purl.org/dc/elements/1.1/" xmlns:svg="http://www.w3.org/2000/svg" id="svg2" viewBox="0 0 567.19 728.37" version="1.0">
  <g id="layer1" transform="translate(-113.14 -95.693)">
    <g id="g2076" stroke="#000" stroke-width="1px" fill-rule="evenodd">
      <path id="path2061" d="m403.05 526.07l-1.01 22.73 4.55 31.32v8.08l-0.51 101.52 3.03 44.95 0.51 88.89-21.22-2.02-4.04-232.84-5.05-54.04 4.55-41.92h20.71l-1.52 33.33z" fill="#214209"/>
      <path id="path2055" d="m316.14 490.12l-20 2.14-20 12.86-14.28 12.14 0.71 22.86 9.29 17.86 20 19.28 17.85 7.15 33.57-25 34.29-22.15 24.29-10.71 20.71-10 10.71-8.57-6.42-17.86-30.72-15-59.28 2.14-20.72 12.86z" fill="#305b25"/>
      <path id="path2057" d="m256.58 410.41l-10.1 7.07-32.83 12.63-33.34 16.16-32.32 13.13 16.66-7.57 16.17-12.63 16.66-19.19 10.61-15.16 7.07-14.14 22.23-8.08 21.71-4.04-2.52 31.82z" fill="#305b25"/>
      <path id="path2059" d="m629.33 359.9l3.03 6.82 6.31 8.59 8.33 8.84 8.08 5.8 16.92 11.87 2.02 3.54-2.52-2.02-16.92-8.84-19.95-2.53-29.3-8.08-15.4-8.33-25.76-24.5 44.7 1.52 22.22 8.33-1.76-1.01z" fill="#305b25"/>
      <path id="path1958" d="m391.07 222.09l9.11-1.79-0.18-36.43-0.35-22.86-6.97-32.67-9.11-17.5-10.71-14.647-4.82 9.817-6.07 12.15-2.5 12.68-1.43 21.07 0.53 15.18 4.29 23.03 9.29 19.64 9.46 13.4 9.46-1.07z" fill="#a39302"/>
      <path id="path1936" d="m382.85 223.78l-11.37 5.81-12.62-5.3-13.89-17.93-11.11-20.46-9.6-34.09-2.27-31.82 8.83 6.57 11.12 9.59 8.84 7.83 9.59 12.12 12.38 19.2 7.07 14.39 2.02 22.73 1.01 6.57v4.79z" fill="#a39302"/>
      <path id="path1942" d="m486.51 241.87l-10.2-7.67-0.76-13.67 10.04-20.34 13.53-18.95 26.45-23.55 27.61-15.98-2.03 10.83-3.76 14.19-3.17 11.37-6.7 13.94-11.84 19.52-9.84 12.66-19.55 11.77-5.47 3.78-4.31 2.1z" fill="#a39302"/>
      <path id="path1944" d="m518.35 295.8l-4.65-11.88 6.54-12.04 19.22-12.03 21.46-9.03 34.88-6.15 31.89 0.9-7.42 8.14-10.65 10.11-8.67 8.01-13.02 8.34-20.33 10.41-15.02 5.6-22.82-0.25-6.63 0.35-4.78-0.48z" fill="#a39302"/>
      <path id="path1946" d="m498.77 373.49l6.67-10.88 13.54-2.06 21.2 8.06 20.14 11.67 25.96 24.09 18.53 25.97-10.97-1-14.48-2.39-11.63-2.08-14.5-5.34-20.57-9.93-13.54-8.6-13.57-18.34-4.28-5.08-2.5-4.09z" fill="#a39302"/>
      <path id="path1948" d="m443.7 403.98l12.31-3.37 11.28 7.76 9.96 20.38 6.72 22.28 2.46 35.34-4.24 31.61-7.32-8.22-8.93-11.66-7.06-9.46-6.93-13.82-8.22-21.31-3.99-15.53 2.64-22.66 0.34-6.64 0.98-4.7z" fill="#a39302"/>
      <path id="path1950" d="m362.17 389.34l11.57 5.38 3.6 13.21-5.57 21.99-9.27 21.35-20.95 28.56-23.66 21.39-0.28-11.01 0.72-14.66 0.72-11.79 3.64-15.02 7.5-21.57 6.99-14.44 16.66-15.59 4.55-4.84 3.78-2.96z" fill="#a39302"/>
      <path id="path1976" d="m333.5 354.22l-4.28-8.24-34.91 10.41-21.83 6.77-29.4 15.87-14.24 13.67-11.04 14.39 10.79 1.87 13.36 2.41 12.87-1.16 20.62-4.56 14.41-4.78 20.91-10.59 16.23-14.43 10.2-12.85-3.69-8.78z" fill="#a39302"/>
      <path id="path1952" d="m324.45 335.04l4.12 12.08-7.06 11.73-19.73 11.18-21.84 8.07-35.11 4.61-31.82-2.31 7.76-7.81 11.09-9.62 9.02-7.62 13.37-7.77 20.77-9.49 15.26-4.94 22.78 1.26 6.64-0.06 4.75 0.69z" fill="#a39302"/>
      <path id="path1980" d="m322.75 293.37l3.45-8.62-30.68-19.64-19.39-12.12-31.22-11.9-19.64-1.86-18.11 1.04 5.63 9.38 6.89 11.7 9.29 8.98 16.91 12.65 13.04 7.8 21.67 8.91 21.53 2.88 17.46-0.14 3.17-9.06z" fill="#a39302"/>
      <path id="path1954" d="m335.36 269.35l-7.4 10.4-13.65 1.13-20.6-9.49-19.3-13.02-24.25-25.81-16.71-27.17 10.87 1.74 14.29 3.38 11.46 2.87 14.1 6.32 19.84 11.31 12.92 9.5 12.29 19.23 3.92 5.36 2.22 4.25z" fill="#a39302"/>
      <path id="path1956" d="m444.81 219.17l-12.52-2.48-6.63-11.99 0.21-22.68 3.94-22.94 13.59-32.71 17.93-26.384 2.87 10.634 2.78 14.41 2.09 11.62 0.02 15.46-2.18 22.74-3.36 15.68-12.5 19.09-3.27 5.78-2.97 3.77z" fill="#a39302"/>
      <path id="path1966" d="m506.27 261.42l5.4 8.54 32.13-11.97 21.51-7.74 28.66-17.18 13.61-14.28 10.38-14.88-10.85-1.38-13.46-1.81-12.8 1.74-20.4 5.47-14.19 5.43-20.4 11.51-15.58 15.15-9.6 13.29 5.59 8.11z" fill="#a39302"/>
      <path id="path1968" d="m520.3 309.1l0.56 9.28 34.5 6.74 22.59 3.54 33.38-1.29 18.8-5.99 16.25-8.07-8.85-6.42-10.93-8.05-12.07-4.62-20.52-5-15.05-2.06-23.43 0.3-20.94 5.8-15.52 6.33 1.23 9.51z" fill="#a39302"/>
      <path id="path1970" d="m489.64 380.36l-6.81 6.3 19.27 30.92 12.3 19.27 23.08 24.16 16.94 10.11 16.8 6.84-1.05-10.89-1.2-13.52-4.53-12.11-9.84-18.68-8.43-12.64-15.74-17.36-18.21-11.84-15.09-6.44-7.49 5.88z" fill="#a39302"/>
      <path id="path1972" d="m427.47 405.64l-9.13 1.64-0.43 36.43-0.02 22.86 6.41 32.79 8.82 17.64 10.47 14.82 4.98-9.74 6.27-12.04 2.72-12.63 1.78-21.05-0.29-15.18-3.9-23.1-8.96-19.8-9.24-13.55-9.48 0.91z" fill="#a39302"/>
      <path id="path1974" d="m403.05 406.89l-9.28-0.33-8.09 35.52-4.84 22.35-0.63 33.4 4.9 19.11 7.11 16.69 6.93-8.47 8.67-10.45 5.31-11.78 6.17-20.19 2.92-14.91 1.05-23.41-4.58-21.23-6.18-15.19-9.46-1.11z" fill="#a39302"/>
      <path id="path1994" d="m323.81 336.51l-10.6 8.48-23.64 13.28-26.73 7.37-25.43-5.32 13.82-13.92 28.3-20.49 13.6-4.74 17.22-0.59 11.01 1.11 2.45 14.82z" fill="#a39302"/>
      <path id="path1978" d="m320.66 313l-0.81-9.25-36.24-3.7-22.77-2.08-33.23 3.44-18.37 7.19-15.7 9.1 9.25 5.84 11.43 7.33 12.34 3.83 20.8 3.67 15.15 1.08 23.36-1.8 20.52-7.14 14.32-7.99-0.05-9.52z" fill="#a39302"/>
      <path id="path1982" d="m357.09 242.47l-12.88-4.29-23.99-12.63-20.71-18.43-9.34-24.25 19.19 4.04 32.58 12.63 11.36 8.84 9.85 14.14 5.05 9.85-11.11 10.1z" fill="#a39302"/>
      <path id="path1984" d="m514.11 345.59l13.54-1.06 27.01 2.29 26.25 8.92 18.05 18.7-19.26 3.75-34.92 1.05-13.91-3.72-14.57-9.19-8.49-7.11 6.3-13.63z" fill="#a39302"/>
      <path id="path1986" d="m510.25 269.67l8.84-10.3 20.76-17.44 24.89-12.2 25.98 0.51-10.99 16.24-24.01 25.39-12.47 7.18-16.82 3.77-11.03 0.96-5.15-14.11z" fill="#a39302"/>
      <path id="path1988" d="m420.6 406.68l6.49 11.93 8.92 25.6 2.57 27.61-9.71 24.1-11.28-16.05-15.2-31.46-2.28-14.22 2.45-17.05 3.03-10.65 15.01 0.19z" fill="#a39302"/>
      <path id="path1990" d="m346.14 376.51l-6.57 11.89-16.78 21.29-21.9 17.01-25.54 4.77 7.47-18.14 18.34-29.73 10.76-9.57 15.7-7.11 10.61-3.17 7.91 12.76z" fill="#a39302"/>
      <path id="path1992" d="m320.37 313.01l-19.12-2.5-26.91-3.32-25.89-9.92-17.31-19.38 19.38-3 34.94 0.29 13.75 4.25 14.22 9.74 8.2 7.43-1.26 16.41z" fill="#a39302"/>
      <path id="path1996" d="m488.04 243.2l3.75-13.05 11.63-24.49 17.56-21.45 23.84-10.34-3.25 19.34-11.27 33.08-8.36 11.72-13.72 10.42-9.63 5.45-10.55-10.68z" fill="#a39302"/>
      <path id="path1998" d="m407.79 218.56l-6.16-14.87-7.17-26.15-0.67-27.71 11.33-23.39 10.15 16.78 13.03 32.42 1.3 14.34-3.6 16.85-3.75 10.42-14.46 1.31z" fill="#a39302"/>
      <path id="path2000" d="m354.11 244.05l-11.79-15.36-17.5-18.57-22.5-12.14-31.07-13.22-30-7.85 2.86 7.85 9.29 15 24.28 22.15 23.57 16.78 25.36 10.36 18.21 5.71 3.58-5.71 5.71-5z" fill="#a39302"/>
      <path id="path2002" d="m354.11 244.05l-11.79-15.36-17.5-18.57-22.5-12.14-31.07-13.22-30-7.85 2.86 7.85 9.29 15 24.28 22.15 23.57 16.78 25.36 10.36 18.21 5.71 3.58-5.71 5.71-5z" fill="#a39302"/>
      <path id="path2004" d="m354.11 244.05l-11.79-15.36-17.5-18.57-22.5-12.14-31.07-13.22-30-7.85 2.86 7.85 9.29 15 24.28 22.15 23.57 16.78 25.36 10.36 18.21 5.71 3.58-5.71 5.71-5z" fill="#a39302"/>
      <path id="path2006" d="m383.17 392.41l-12.79 14.53-14.85 20.75-7.57 24.42-6.98 33.04-1.92 30.95 7.16-4.32 12.92-12 17.05-28.1 11.92-26.37 5.27-26.88 2.1-18.97-6.3-2.41-6.01-4.64z" fill="#a39302"/>
      <path id="path2008" d="m456.24 389.66l7.98 17.64 12.81 22.07 19.15 16.95 27.24 19.94 27.42 14.48-0.99-8.3-5.62-16.72-18.61-27.09-19.13-21.71-22.33-15.86-16.44-9.71-4.77 4.75-6.71 3.56z" fill="#a39302"/>
      <path id="path2010" d="m512.86 333.39l16.24 10.53 22.71 11.64 25.26 3.92 33.71 2.05 30.9-2.63-5.33-6.45-13.77-11.03-30.29-12.74-27.83-7.93-27.36-1.28-19.08 0.71-1.45 6.58-3.71 6.63z" fill="#a39302"/>
      <path id="path2012" d="m468.71 231.69l11.07-15.88 12.39-22.31 4.75-25.12 3.18-33.61-1.61-30.97-6.62 5.1-11.48 13.4-13.74 29.85-8.85 27.55-2.19 27.3 0.08 19.09 6.53 1.67 6.49 3.93z" fill="#a39302"/>
      <path id="path2014" d="m352.77 372.93l-15.9 11.05-19.37 16.61-13.19 21.9-14.67 30.41-9.26 29.6 7.98-2.49 15.42-8.56 23.27-23.22 17.88-22.75 11.54-24.84 6.56-17.93-5.54-3.83-4.72-5.95z" fill="#a39302"/>
      <path id="path1932" d="m370.54 230.84c21.9-13.38 48.95-14.63 73.73-10.98 28.72 6.98 55.32 26.46 67.35 53.87 6.23 19.11 10.73 39.71 7.51 59.79-6.05 23.96-22.92 44-43.6 56.97-10.14 7.07-21.45 12.65-33.9 13.88-18.78 2.5-38.56 4.9-56.57-2.66-37.3-14.85-66.4-53.22-64.22-94.26 1.8-21.03 13.33-40.1 26.71-55.91 6.67-7.97 14.89-14.29 22.99-20.7z" fill="#4d2702"/>
      <path id="path1934" d="m420.37 271.6c10.32 0.75 21.22 2.68 29.48 9.38 5.51 7.81 6.6 17.6 10.03 26.31 1.57 9.77-4.32 18.68-10.58 25.57-4.54 6.53-11.31 11.58-19.13 13.31-4.2 1.31-8.49 2.28-12.71 3.48-12.46-1.85-22.34-10.4-31.51-18.37-5.69-5.85-6.81-14.55-6.02-22.34-0.05-8.5 3.31-17.48 10.63-22.31 7.87-6.57 16.63-12.98 26.94-14.83 0.95-0.12 1.91-0.19 2.87-0.2z" fill="#2b2e10"/>
      <path id="path2067" d="m399.01 698.3l-11.62-1.01-21.21-19.19-25.76-17.17-23.74-9.6-29.8-2.02-36.36 3.54-40.91 9.09-39.9 12.63-20.71 6.06-8.59 7.57-26.77 21.22 5.56-32.83 16.16-21.22 26.77-16.16 32.32-19.7 47.99-14.65 21.21-3.53 21.72-10.1 18.18-9.09 18.69-10.61 20.71-3.03 1.51 13.13-19.19 22.73-3.03 7.58 0.5 13.13 7.07 13.13 8.09 13.13 22.22 11.62 22.22 17.17 16.67 18.18z" fill="#305b25"/>
      <path id="path2074" d="m394.46 637.69l11.62-1.01 21.21-19.19 25.76-17.17 23.74-9.6 29.8-2.02 36.37 3.54 40.91 9.09 39.9 12.63 20.71 6.06 8.58 7.57 26.77 21.22-5.55-32.83-16.17-21.22-26.76-16.16-32.33-19.7-47.98-14.64-21.21-3.54-21.72-10.1-18.19-9.09-18.68-10.61-20.71-3.03-1.52 13.13 19.2 22.73 3.03 7.58-0.51 13.13-7.07 13.13-8.08 13.13-22.22 11.62-22.23 17.17-16.67 18.18z" fill="#305b25"/>
    </g>
  </g>
  <metadata>
    <rdf:RDF>
      <cc:Work>
        <dc:format>image/svg+xml</dc:format>
        <dc:type rdf:resource="http://purl.org/dc/dcmitype/StillImage"/>
        <cc:license rdf:resource="http://creativecommons.org/licenses/publicdomain/"/>
        <dc:publisher>
          <cc:Agent rdf:about="http://openclipart.org/">
            <dc:title>Openclipart</dc:title>
          </cc:Agent>
        </dc:publisher>
        <dc:title>sunflower</dc:title>
        <dc:date>2007-01-02T12:14:30</dc:date>
        <dc:description>clip art, clipart, flower, flower, herb, herb, image, media, nature, nature, plant, plant, public domain, svg, </dc:description>
        <dc:source>http://openclipart.org/detail/2737/sunflower-by-machovka</dc:source>
        <dc:creator>
          <cc:Agent>
            <dc:title>Machovka</dc:title>
          </cc:Agent>
        </dc:creator>
        <dc:subject>
          <rdf:Bag>
            <rdf:li>clip art</rdf:li>
            <rdf:li>clipart</rdf:li>
            <rdf:li>flower</rdf:li>
            <rdf:li>herb</rdf:li>
            <rdf:li>image</rdf:li>
            <rdf:li>media</rdf:li>
            <rdf:li>nature</rdf:li>
            <rdf:li>plant</rdf:li>
            <rdf:li>public domain</rdf:li>
            <rdf:li>svg</rdf:li>
          </rdf:Bag>
        </dc:subject>
      </cc:Work>
      <cc:License rdf:about="http://creativecommons.org/licenses/publicdomain/">
        <cc:permits rdf:resource="http://creativecommons.org/ns#Reproduction"/>
        <cc:permits rdf:resource="http://creativecommons.org/ns#Distribution"/>
        <cc:permits rdf:resource="http://creativecommons.org/ns#DerivativeWorks"/>
      </cc:License>
    </rdf:RDF>
  </metadata>
</svg>
