<?xml version="1.0"?>
<svg xmlns:rdf="http://www.w3.org/1999/02/22-rdf-syntax-ns#" xmlns="http://www.w3.org/2000/svg" xmlns:cc="http://creativecommons.org/ns#" xmlns:xlink="http://www.w3.org/1999/xlink" xmlns:dc="http://purl.org/dc/elements/1.1/" xmlns:svg="http://www.w3.org/2000/svg" id="svg2" viewBox="0 0 570.72 571.77" version="1.0">
  <defs id="defs4">
    <filter id="filter3866" y="-.36" width="1.72" x="-.36" height="1.72">
      <feGaussianBlur id="feGaussianBlur3868" stdDeviation="47.7"/>
    </filter>
    <linearGradient id="linearGradient3876" y2="414.11" gradientUnits="userSpaceOnUse" y1="734.61" x2="362" x1="362">
      <stop id="stop3872" stop-color="#a80" offset="0"/>
      <stop id="stop3874" stop-color="#d56b0d" stop-opacity=".69912" offset="1"/>
    </linearGradient>
    <linearGradient id="linearGradient5210" y2="532.18" gradientUnits="userSpaceOnUse" x2="142" gradientTransform="translate(0,-2)" y1="532.18" x1="259">
      <stop id="stop5206" stop-color="#a56c00" offset="0"/>
      <stop id="stop5208" stop-color="#a56c00" stop-opacity="0" offset="1"/>
    </linearGradient>
    <linearGradient id="linearGradient5256" y2="428.67" gradientUnits="userSpaceOnUse" x2="158.1" gradientTransform="matrix(.86531 .50124 -.50124 .86531 246.07 -58.17)" y1="426.33" x1="280.14">
      <stop id="stop5252" stop-color="#a56c00" offset="0"/>
      <stop id="stop5254" stop-color="#a56c00" stop-opacity="0" offset="1"/>
    </linearGradient>
    <linearGradient id="linearGradient5302" y2="356.34" gradientUnits="userSpaceOnUse" x2="222.62" gradientTransform="matrix(.81155 .58428 -.58428 .81155 290.11 -95.203)" y1="406.12" x1="317.65">
      <stop id="stop5298" stop-color="#a56c00" offset="0"/>
      <stop id="stop5300" stop-color="#a56c00" stop-opacity="0" offset="1"/>
    </linearGradient>
    <linearGradient id="linearGradient5348" y2="543.11" gradientUnits="userSpaceOnUse" x2="180.09" gradientTransform="matrix(.78421 -.62049 .62049 .78421 -263.53 321.21)" y1="536.01" x1="283.83">
      <stop id="stop5344" stop-color="#a56c00" offset="0"/>
      <stop id="stop5346" stop-color="#a56c00" stop-opacity="0" offset="1"/>
    </linearGradient>
    <linearGradient id="linearGradient5394" y2="635.97" gradientUnits="userSpaceOnUse" x2="218.42" gradientTransform="matrix(.88784 -.46014 .46014 .88784 -189.77 220.46)" y1="575.55" x1="297.64">
      <stop id="stop5390" stop-color="#a56c00" offset="0"/>
      <stop id="stop5392" stop-color="#a56c00" stop-opacity="0" offset="1"/>
    </linearGradient>
    <linearGradient id="linearGradient5440" y2="656.06" gradientUnits="userSpaceOnUse" x2="281.07" gradientTransform="matrix(.86157 -.50765 .50765 .86157 -180.67 247.53)" y1="601.9" x1="312.99">
      <stop id="stop5436" stop-color="#a56c00" offset="0"/>
      <stop id="stop5438" stop-color="#a56c00" stop-opacity="0" offset="1"/>
    </linearGradient>
    <linearGradient id="linearGradient5486" y2="657.84" gradientUnits="userSpaceOnUse" x2="404.76" gradientTransform="matrix(.78745 -.61638 .61638 .78745 -176.68 301.38)" y1="583.54" x1="341.1">
      <stop id="stop5482" stop-color="#a56c00" offset="0"/>
      <stop id="stop5484" stop-color="#a56c00" stop-opacity="0" offset="1"/>
    </linearGradient>
    <linearGradient id="linearGradient5532" y2="614.6" gradientUnits="userSpaceOnUse" x2="485.72" gradientTransform="translate(15.875 -4.3295)" y1="614.6" x1="407.12">
      <stop id="stop5528" stop-color="#a56c00" offset="0"/>
      <stop id="stop5530" stop-color="#a56c00" stop-opacity="0" offset="1"/>
    </linearGradient>
    <linearGradient id="linearGradient5578" y2="450.52" gradientUnits="userSpaceOnUse" x2="548.01" gradientTransform="translate(-.96211 6.7348)" y1="470.89" x1="445.37">
      <stop id="stop5574" stop-color="#a56c00" offset="0"/>
      <stop id="stop5576" stop-color="#a56c00" stop-opacity="0" offset="1"/>
    </linearGradient>
    <linearGradient id="linearGradient5624" y2="390.51" gradientUnits="userSpaceOnUse" x2="549.02" gradientTransform="matrix(.90558 -.42418 .42418 .90558 -176.71 226.93)" y1="438.91" x1="450.63">
      <stop id="stop5620" stop-color="#a56c00" offset="0"/>
      <stop id="stop5622" stop-color="#a56c00" stop-opacity="0" offset="1"/>
    </linearGradient>
    <linearGradient id="linearGradient5670" y2="366.64" gradientUnits="userSpaceOnUse" x2="465.18" gradientTransform="matrix(.65059 -.75943 .75943 .65059 -215.64 431.7)" y1="423.78" x1="398.48">
      <stop id="stop5666" stop-color="#a56c00" offset="0"/>
      <stop id="stop5668" stop-color="#a56c00" stop-opacity="0" offset="1"/>
    </linearGradient>
    <linearGradient id="linearGradient5680" y2="552.38" gradientUnits="userSpaceOnUse" x2="375" y1="437.36" x1="375">
      <stop id="stop5676" stop-color="#fff" offset="0"/>
      <stop id="stop5678" stop-color="#fff" stop-opacity="0" offset="1"/>
    </linearGradient>
    <filter id="filter5686">
      <feGaussianBlur id="feGaussianBlur5688" stdDeviation="3.9972048"/>
    </filter>
    <filter id="filter5738">
      <feGaussianBlur id="feGaussianBlur5740" stdDeviation="1.5988819"/>
    </filter>
    <linearGradient id="linearGradient5748" y2="489.7" gradientUnits="userSpaceOnUse" x2="375" y1="607.2" x1="375">
      <stop id="stop5744" stop-color="#423401" offset="0"/>
      <stop id="stop5746" stop-opacity="0" offset="1"/>
    </linearGradient>
  </defs>
  <g id="layer2" stroke-width="1px" transform="translate(-78.494 -210.63)">
    <path id="path3852-6-8-8-2-7-7-1-2-6-0-9" fill="#ffe680" d="m420.86 245.66s6.6488 50.648-40.052 104.31c-37.007 42.522-23.753 97.565-23.753 97.565l51.246 15.246s24.667-28.278 30.908-91.573c6.0751-61.615-17.943-122.06-18.348-125.55z"/>
    <path id="path3852-8" fill="#ffe680" d="m260.21 270.46s27.833 36.813 20.567 107.58c-5.7577 56.075 36.782 93.436 36.782 93.436l50.672-17.056s4.842-37.883-27.482-92.659c-29.364-49.759-78.199-88.682-80.539-91.299z"/>
    <path id="path3852-6-3" fill="#ffe680" d="m197.08 331.07s-0.58262 34.933 23.259 101.96c18.893 53.11 73.358 68.57 73.358 68.57l38.429-37.172s-1.7346-62.379-64.626-71.864c-46.859-7.0672-67.183-60.131-70.42-61.489z"/>
    <path id="path3852-6-8-86" fill="#ffe680" d="m95.983 489.29s53.976-0.84883 100.6 32.914c45.656 33.063 97.379 24.507 97.379 24.507l15.642-51.126s-27.738-32.71-91.331-31.615c-78.377 1.3488-118.8 24.943-122.29 25.321z"/>
    <path id="path3852-6-8-8-2-9" fill="#ffe680" d="m227.6 742.12s7.6286-32.661 72.979-60.763c51.785-22.269 63.71-77.616 63.71-77.616l-39.566-35.959s-51.846 7.4828-67.559 69.114c-11.883 46.607-28.417 101.91-29.564 105.22z"/>
    <path id="path3852-6-8-8-8" fill="#ffe680" d="m130.83 605.82s28.054 14.157 99.114 17.472c56.309 2.6266 91.243-41.928 91.243-41.928l-19.86-49.64s-49.896-15.95-90.985 32.599c-31.073 36.714-77.038 39.02-79.521 41.502z"/>
    <path id="path3852-6-8-8-2-7-6" fill="#ffe680" d="m317.54 739.08s51.698-33.725 52.173-50.971c1.5528-56.349 7.3063-100.15 7.3063-100.15l-53.06-6.5692s-24.695 5.9636-2.001 65.379c17.162 44.932-5.3938 88.938-4.4179 92.309z"/>
    <path id="path3852-6-8-8-2-7-7-1-6" fill="#ffe680" d="m573.38 661.81s-2.5504-29.142-42.117-88.26c-31.353-46.846-87.947-48.462-87.947-48.462l-28.127 45.469s16.827 49.607 80.291 53.799c47.994 3.1701 74.429 36.933 77.9 37.454z"/>
    <path id="path3852-6-8-8-2-7-7-2" fill="#ffe680" d="m518.32 728.94s-30.789-10.284-35.487-81.265c-3.7227-56.247-51.923-85.949-51.923-85.949l-47.097 25.308s2.2248 37.618 42.624 86.742c36.638 44.55 89.137 52.977 91.882 55.164z"/>
    <path id="path3852-6-8-8-2-7-7-1-2-3" fill="#fea" d="m624.97 489.23s-49.005 11.35-85.102-8.7126c-49.271-27.385-100.41-1.1668-100.41-1.1668l-3.3114 53.363s38.265 35.774 96.182 9.4876c43.798-19.878 89.334-51.791 92.64-52.971z"/>
    <path id="path3852-6-8-8-2-7-7-1-2-6-8" fill="#ffe680" d="m547.66 354.21s-0.44309 10.939-68.434 31.858c-53.89 16.57-71.69 70.32-71.69 70.32l35.474 40.002s37.856-9.5359 74.594-61.455c27.948-39.498 28.551-77.551 30.047-80.726z"/>
  </g>
  <g id="layer1" transform="translate(-78.494 -210.63)">
    <path id="path3852-6-8-8-2-7-7-1-2-6-0" stroke-width="1px" fill="#ffd42a" d="m513.98 263.52s4.4085 27.37-67.805 67.344c-57.224 31.676-64.617 96.951-64.617 96.951l49.824 36.96s39.428-20.429 70.04-87.578c20.59-45.166 11.616-109.71 12.558-113.68z"/>
    <path id="path3852" stroke-width="1px" fill="#fc0" d="m343.94 210.63s18.035 36.861-17.969 111.13c-28.531 58.855 3.0252 116.47 3.0252 116.47l62.017 1.5126s39.81-45.927 6.8068-111.93c-24.958-49.916-52.367-113.4-53.88-117.18z"/>
    <path id="path3852-6" stroke-width="1px" fill="#ffd42a" d="m227.85 261.83s10.997 13.366 10.395 95.903c-0.47743 65.404 52.772 103.87 52.772 103.87l56.652-25.279s16.217-58.576-41.944-104c-43.99-34.34-74.89-67.72-77.88-70.49z"/>
    <path id="path5202-6-7" opacity=".3" d="m310.89 423.35c-8.63-59.78-47.32-98.29-47.32-98.29" stroke="url(#linearGradient5302)" stroke-width="2" fill="none"/>
    <path id="path3852-6-8" stroke-width="1px" fill="#fd5" d="m104.71 359.37s32.829 13.648 72.243 86.169c31.233 57.467 96.448 65.364 96.448 65.364l37.344-49.537s-14.155-59.108-87.034-70.715c-55.114-8.7773-115.05-30.309-119-31.282z"/>
    <path id="path3852-6-8-8-2" stroke-width="1px" fill="#ffd42a" d="m135.12 697.82s9.66-32.769 92.065-37.476c65.3-3.7297 100.27-59.343 100.27-59.343l-28.87-54.909s-45.593-0.0998-101.09 48.545c-52.593 46.101-59.806 100.02-62.373 103.18z"/>
    <path id="path3852-6-8-8" stroke-width="1px" fill="#fc0" d="m78.494 527.09s50.826 22.33 81.368 36.341c59.449 27.271 127.25-5.055 127.25-5.055l0.28251-60.893s-48.073-37.191-112.14-0.56383c-48.449 27.699-93.07 28.45-96.761 30.171z"/>
    <path id="path3852-6-8-8-2-7" stroke-width="1px" fill="#fc0" d="m243.29 756.28s7.7685-13.553 72.385-64.909c51.204-40.696 45.484-90.717 45.484-90.717l-55.25-28.22s-59.669 4.2954-54.607 77.919c4.2191 61.365-7.7424 101.86-8.0164 105.93z"/>
    <path id="path3852-6-8-8-2-7-7-1" stroke-width="1px" fill="#fd5" d="m571.67 722.69s-30.505-8.1951-50.184-88.354c-15.594-63.52-76.658-87.74-76.658-87.74l-48.712 38.413s3.1111 75.229 70.644 104.99c51.071 22.502 101.33 30.749 104.91 32.695z"/>
    <path id="path3852-6-8-8-2-7-7" stroke-width="1px" fill="#ffd42a" d="m434.38 782.41s-20.389-33.914 2.6571-113.17c18.262-62.805-20.279-87.613-20.279-87.613l-61.393 8.9037s-31.549 51.95 12.051 111.49c32.972 45.027 64.84 76.914 66.965 80.389z"/>
    <path id="path3852-6-8-8-2-7-7-1-2" stroke-width="1px" fill="#fc0" d="m649.21 589.96s-47.343-13.42-81.415-53.634c-42.28-49.91-109.02-41.13-109.02-41.13l-34.8 60.21s37.539 50.852 111.12 45.176c55.643-4.2926 110.04-10.654 114.11-10.629z"/>
    <path id="path3852-6-8-8-2-7-7-1-2-6" stroke-width="1px" fill="#fd5" d="m621.42 399.22s-13.184 18.674-95.618 14.5c-65.322-3.3076-92.709 43.776-92.709 43.776l22.803 57.693s45.454 5.5825 97.93-46.305c39.561-39.117 64.702-66.795 67.594-69.664z"/>
    <path id="path5202" opacity=".4" d="m264.73 525.84c-26 15-121.73 7.5189-121.73 7.5189" stroke="url(#linearGradient5210)" stroke-width="2" fill="none"/>
    <path id="path5202-6" opacity=".5" d="m273.78 460.03c-15.58-27.47-104.78-67.02-104.78-67.02" stroke="url(#linearGradient5256)" stroke-width="2" fill="none"/>
    <path id="path5202-9" opacity=".4" d="m294.49 571.71c-38.983 13.945-100.9 72.773-100.9 72.773" stroke="url(#linearGradient5348)" stroke-width="2" fill="none"/>
    <path id="path5202-9-6" opacity=".4" d="m328.71 590.35c-37.815 18.774-56.1 111.04-56.1 111.04" stroke="url(#linearGradient5394)" stroke-width="2" fill="none"/>
    <path id="path5202-9-6-8" opacity=".2" d="m394.78 581.39c-23.05 35.372 8.0357 124.15 8.0357 124.15" stroke="url(#linearGradient5440)" stroke-width="2" fill="none"/>
    <path id="path5202-9-6-8-9" opacity=".5" d="m452.6 532.38c71.481 7.425 111.71 36.524 111.71 36.524" stroke="url(#linearGradient5486)" stroke-width="2" fill="none"/>
    <path id="path5202-9-6-8-9-6" opacity=".3" d="m424 560.26c15.197 56.974 76.596 100.02 76.596 100.02" stroke="url(#linearGradient5532)" stroke-width="2" fill="none"/>
    <path id="path5202-9-6-8-9-1" opacity=".5" d="m445.4 476.41c76.291 0.2092 111.71-47.18 111.71-47.18" stroke="url(#linearGradient5578)" stroke-width="2" fill="none"/>
    <path id="path5202-9-6-8-9-1-3" opacity=".5" d="m418.35 427.92c12.412-46.603 66.239-89.63 66.239-89.63" stroke="url(#linearGradient5624)" stroke-width="2" fill="none"/>
    <path id="path5202-9-6-8-9-1-3-7" opacity=".5" d="m367.27 414.38c12.214-111.03-7.6404-120.1-7.6404-120.1" stroke="url(#linearGradient5670)" stroke-width="2" fill="none"/>
  </g>
  <g id="layer3" transform="translate(-78.494 -210.63)">
    <path id="path3024-1" filter="url(#filter3866)" transform="matrix(.74966 0 0 .74966 88.965 78.916)" fill="#b60" d="m521 574.36c0 87.813-71.187 159-159 159s-159-71.187-159-159 71.187-159 159-159 159 71.187 159 159z"/>
    <path id="path3024" d="m521 574.36c0 87.813-71.187 159-159 159s-159-71.187-159-159 71.187-159 159-159 159 71.187 159 159z" transform="matrix(.63183 0 0 .63183 132.79 146.44)" stroke="#885b00" stroke-width="2.5" fill="url(#linearGradient3876)"/>
    <path id="path5672-2" opacity=".29" d="m452 520.36c0 45.84-34.474 83-77 83s-77-37.16-77-83 34.474-83 77-83 77 37.16 77 83z" transform="matrix(1.2071 0 0 1.0111 -90.645 -5.7751)" filter="url(#filter5738)" fill="url(#linearGradient5748)"/>
    <path id="path5672" opacity=".29" d="m452 520.36c0 45.84-34.474 83-77 83s-77-37.16-77-83 34.474-83 77-83 77 37.16 77 83z" transform="matrix(1.071 0 0 .99958 -42.117 -23.783)" filter="url(#filter5686)" fill="url(#linearGradient5680)"/>
  </g>
  <metadata>
    <rdf:RDF>
      <cc:Work>
        <dc:format>image/svg+xml</dc:format>
        <dc:type rdf:resource="http://purl.org/dc/dcmitype/StillImage"/>
        <cc:license rdf:resource="http://creativecommons.org/licenses/publicdomain/"/>
        <dc:publisher>
          <cc:Agent rdf:about="http://openclipart.org/">
            <dc:title>Openclipart</dc:title>
          </cc:Agent>
        </dc:publisher>
        <dc:title>Sunflower</dc:title>
        <dc:date>2009-04-09T21:04:04</dc:date>
        <dc:description>A cartoony sunflower. It has a sort of 'icony' feel to it, but it is purely coincidental. I suggest recoloring if it is used for any serious work.</dc:description>
        <dc:source>http://openclipart.org/detail/24355/sunflower-by-mokush-24355</dc:source>
        <dc:creator>
          <cc:Agent>
            <dc:title>mokush</dc:title>
          </cc:Agent>
        </dc:creator>
        <dc:subject>
          <rdf:Bag>
            <rdf:li>aiflowers</rdf:li>
            <rdf:li>cartoony sunflower</rdf:li>
            <rdf:li>checked</rdf:li>
            <rdf:li>clip art</rdf:li>
            <rdf:li>clipart</rdf:li>
            <rdf:li>editorial pick</rdf:li>
            <rdf:li>flower</rdf:li>
            <rdf:li>icon</rdf:li>
            <rdf:li>image</rdf:li>
            <rdf:li>leaf</rdf:li>
            <rdf:li>media</rdf:li>
            <rdf:li>png</rdf:li>
            <rdf:li>public domain</rdf:li>
            <rdf:li>sun</rdf:li>
            <rdf:li>sunflower</rdf:li>
            <rdf:li>sunflower icon</rdf:li>
            <rdf:li>svg</rdf:li>
          </rdf:Bag>
        </dc:subject>
      </cc:Work>
      <cc:License rdf:about="http://creativecommons.org/licenses/publicdomain/">
        <cc:permits rdf:resource="http://creativecommons.org/ns#Reproduction"/>
        <cc:permits rdf:resource="http://creativecommons.org/ns#Distribution"/>
        <cc:permits rdf:resource="http://creativecommons.org/ns#DerivativeWorks"/>
      </cc:License>
    </rdf:RDF>
  </metadata>
</svg>
